<svg width="99" height="27" viewBox="0 0 99 27" fill="none" xmlns="http://www.w3.org/2000/svg">
<path d="M4.96 20.12C4.96 20.9067 4.19333 21.3 2.66 21.3C2.32667 21.3 2.12667 21.1333 2.06 20.8C2.00667 20.4533 1.98 19.9867 1.98 19.4C1.98 18.2533 2.28 16.5533 2.88 14.3C3.48 12.0467 4.08667 10.24 4.7 8.88C3.27333 8.90667 2.20667 9.18667 1.5 9.72C1.28667 9.88 1.11333 10.0267 0.98 10.16C0.846667 10.28 0.726667 10.34 0.62 10.34C0.526667 10.34 0.433333 10.2667 0.34 10.12C0.246667 9.96 0.2 9.77333 0.2 9.56C0.2 8.82667 0.526667 8.26 1.18 7.86C2.11333 7.3 3.44 6.92667 5.16 6.74C5.92 6.66 6.61333 6.62 7.24 6.62H7.28C7.37333 6.62 7.5 6.67333 7.66 6.78C7.83333 6.88667 7.92 7.06 7.92 7.3C7.92 7.54 7.87333 7.81333 7.78 8.12C7.7 8.41333 7.58667 8.63333 7.44 8.78C7.36 9.42 7.18667 10.1867 6.92 11.08C6.65333 11.9733 6.37333 12.9267 6.08 13.94C5.33333 16.5533 4.96 18.6133 4.96 20.12ZM14.84 16.28C15.0667 16.28 15.18 16.5867 15.18 17.2C15.18 17.5333 15.04 17.94 14.76 18.42C14.48 18.8867 14.1133 19.32 13.66 19.72C13.22 20.1067 12.7267 20.4267 12.18 20.68C11.6333 20.9333 11.1133 21.06 10.62 21.06C10.1267 21.06 9.74 20.9667 9.46 20.78C9.18 20.5933 8.96 20.34 8.8 20.02C8.57333 19.5667 8.38667 18.7067 8.24 17.44C8.09333 16.16 7.94667 15.2667 7.8 14.76C7.45333 14.6933 7.14667 14.56 6.88 14.36C6.62667 14.1467 6.5 13.8933 6.5 13.6C6.5 13.2933 6.63333 13.0733 6.9 12.94C7.18 12.8067 7.49333 12.74 7.84 12.74C8.18667 12.74 8.49333 12.82 8.76 12.98C9.48 12.2067 10.1333 11.1933 10.72 9.94C10.9867 9.36667 11.24 8.78 11.48 8.18C11.7333 7.56667 11.9933 6.94 12.26 6.3C12.3267 6.14 12.4667 6.04667 12.68 6.02C12.9067 5.98 13.2 5.96 13.56 5.96C13.92 5.96 14.1733 6.08 14.32 6.32C14.4667 6.54667 14.54 6.92667 14.54 7.46C14.54 7.98 14.4 8.58 14.12 9.26C13.84 9.94 13.48 10.6 13.04 11.24C12.12 12.5867 11.06 13.6 9.86 14.28C10.0733 14.72 10.2467 15.2067 10.38 15.74C10.5133 16.26 10.64 16.7467 10.76 17.2C10.88 17.64 11.0133 18.0133 11.16 18.32C11.32 18.6133 11.5133 18.76 11.74 18.76C11.9667 18.76 12.2333 18.6333 12.54 18.38C12.86 18.1133 13.1733 17.8267 13.48 17.52C13.7867 17.2133 14.06 16.9333 14.3 16.68C14.5533 16.4133 14.7333 16.28 14.84 16.28ZM16.5742 21.06C15.2409 21.06 14.5742 19.8133 14.5742 17.32C14.5742 15.96 14.7409 14.7267 15.0742 13.62C15.5942 11.9133 16.1809 11.06 16.8342 11.06C17.2209 11.06 17.5276 11.32 17.7542 11.84C17.9409 12.24 18.0276 12.6333 18.0142 13.02C18.0142 13.5533 17.8542 14.4933 17.5342 15.84C17.2276 17.0133 17.0742 17.74 17.0742 18.02C17.0742 18.3 17.1409 18.4933 17.2742 18.6C17.4209 18.7067 17.5876 18.76 17.7742 18.76C17.9742 18.76 18.2209 18.6333 18.5142 18.38C18.8076 18.1267 19.1009 17.8533 19.3942 17.56C19.6876 17.2533 19.9542 16.9733 20.1942 16.72C20.4476 16.4667 20.6209 16.34 20.7142 16.34C20.9009 16.34 20.9942 16.5667 20.9942 17.02C20.9942 17.9533 20.5209 18.8667 19.5742 19.76C18.6409 20.64 17.6409 21.0733 16.5742 21.06ZM17.3942 9.44C17.0342 8.90667 16.8542 8.33333 16.8542 7.72C16.8542 7.10667 16.9476 6.6 17.1342 6.2C17.3342 5.78667 17.5209 5.48667 17.6942 5.3C17.8676 5.1 18.0676 5 18.2942 5C18.6676 5 19.0076 5.28 19.3142 5.84C19.6209 6.38667 19.7742 6.84667 19.7742 7.22C19.7742 7.91333 19.5276 8.46 19.0342 8.86C18.5542 9.24667 18.0076 9.44 17.3942 9.44ZM22.9145 17.64L23.0345 20.08C23.0345 20.4 22.8679 20.6867 22.5345 20.94C22.2012 21.1933 21.7479 21.32 21.1745 21.32C20.8412 21.32 20.6079 21.1467 20.4745 20.8C20.3545 20.4533 20.2945 19.9467 20.2945 19.28C20.2945 17.88 20.3612 16.7867 20.4945 16C20.6412 15.2 20.9212 14.3933 21.3345 13.58C20.7212 12.9933 20.4145 12.4867 20.4145 12.06C20.4145 11.1667 20.8945 10.72 21.8545 10.72C22.3479 10.72 22.7812 10.98 23.1545 11.5C23.4212 11.86 23.6145 12.28 23.7345 12.76C23.9212 12.8267 24.1545 12.86 24.4345 12.86C24.8212 12.86 25.2679 12.7333 25.7745 12.48L26.2945 12.22C26.4545 12.14 26.5945 12.1 26.7145 12.1C27.1012 12.1 27.4879 12.6667 27.8745 13.8C27.7545 14.32 27.6212 14.82 27.4745 15.3C27.3412 15.78 27.1812 16.36 26.9945 17.04C26.8079 17.72 26.7079 18.18 26.6945 18.42C26.6945 18.6467 26.7679 18.76 26.9145 18.76C27.1145 18.76 27.3612 18.6333 27.6545 18.38C27.9479 18.1267 28.2412 17.8533 28.5345 17.56C28.8279 17.2533 29.0945 16.9733 29.3345 16.72C29.5879 16.4667 29.7612 16.34 29.8545 16.34C30.0412 16.34 30.1345 16.5667 30.1345 17.02C30.1345 17.94 29.7279 18.8467 28.9145 19.74C28.1145 20.6333 27.1945 21.0733 26.1545 21.06C25.5412 21.06 25.0812 20.8133 24.7745 20.32C24.4679 19.8267 24.3079 19.2267 24.2945 18.52C24.2945 17.12 24.6079 15.7933 25.2345 14.54C24.9412 14.66 24.6079 14.72 24.2345 14.72C23.8745 14.72 23.6145 14.7067 23.4545 14.68C23.3345 15.1867 23.2145 15.7 23.0945 16.22C22.9745 16.7267 22.9145 17.2 22.9145 17.64ZM30.0152 19.92C29.8685 19.56 29.7618 19.1467 29.6952 18.68C29.6285 18.2 29.5952 17.5333 29.5952 16.68C29.5952 15.8267 29.7552 14.6733 30.0752 13.22H29.1752C29.0152 13.22 28.9352 13.1533 28.9352 13.02C28.9352 12.7 28.9618 12.44 29.0152 12.24C29.0818 12.0267 29.2285 11.7867 29.4552 11.52H29.9352C30.1218 11.52 30.3218 11.5133 30.5352 11.5C31.1752 9.44667 31.8285 8.42 32.4952 8.42C33.0285 8.43333 33.4018 8.77333 33.6152 9.44C33.6685 9.62667 33.7285 9.82667 33.7952 10.04L32.9752 11.48C33.9085 11.5067 34.4952 11.52 34.7352 11.52C34.9885 11.52 35.1218 11.5467 35.1352 11.6C35.1618 11.64 35.1752 11.7067 35.1752 11.8C35.1752 12.04 35.1152 12.34 34.9952 12.7C34.8885 13.06 34.7618 13.2333 34.6152 13.22L32.6152 13.12C32.3352 14.7467 32.1952 16.0933 32.1952 17.16C32.1952 18.2267 32.3485 18.76 32.6552 18.76C32.9085 18.76 33.3685 18.5533 34.0352 18.14C34.7018 17.7133 35.1818 17.3067 35.4752 16.92C35.7685 16.5333 36.0085 16.34 36.1952 16.34C36.3818 16.34 36.4752 16.5667 36.4752 17.02C36.4752 17.4733 36.3152 17.94 35.9952 18.42C35.6752 18.8867 35.2685 19.32 34.7752 19.72C34.2952 20.1067 33.7552 20.4267 33.1552 20.68C32.5685 20.9333 32.0552 21.06 31.6152 21.06C31.1752 21.06 30.8352 20.96 30.5952 20.76C30.3685 20.5467 30.1752 20.2667 30.0152 19.92ZM47.7628 16.28C48.0028 16.28 48.1228 16.5867 48.1228 17.2C48.1228 17.5333 47.9828 17.94 47.7028 18.42C47.4228 18.8867 47.0561 19.32 46.6028 19.72C46.1628 20.1067 45.6695 20.4267 45.1228 20.68C44.5761 20.9333 44.0428 21.06 43.5228 21.06C42.8161 21.06 42.3428 20.44 42.1028 19.2C41.7561 19.7733 41.3028 20.2467 40.7428 20.62C40.1828 20.98 39.4295 21.16 38.4828 21.16C37.5495 21.16 36.7961 20.8667 36.2228 20.28C35.6495 19.6933 35.3695 18.98 35.3828 18.14C35.3828 15.8733 36.1361 14.0867 37.6428 12.78C38.2828 12.2333 38.8761 11.8733 39.4228 11.7C39.9828 11.5267 40.5695 11.44 41.1828 11.44C41.7961 11.44 42.2961 11.5467 42.6828 11.76C42.8695 11.3733 43.0828 11.18 43.3228 11.18C43.7895 11.18 44.2295 11.3867 44.6428 11.8C45.0695 12.2 45.2828 12.58 45.2828 12.94C45.0961 13.38 44.8228 13.9067 44.4628 14.52C44.3561 15.1333 44.3028 15.9933 44.3028 17.1C44.3028 18.2067 44.4428 18.76 44.7228 18.76C45.0695 18.76 45.9095 18.0667 47.2428 16.68C47.4828 16.4133 47.6561 16.28 47.7628 16.28ZM38.3228 17.48C38.3228 18.5067 38.7028 19.02 39.4628 19.02C40.2761 19.0067 40.9495 18.5733 41.4828 17.72C41.6695 17.4267 41.8228 17.0667 41.9428 16.64C41.9428 15.1467 42.0761 13.8667 42.3428 12.8C41.2628 13.0133 40.3228 13.5333 39.5228 14.36C38.7228 15.1867 38.3228 16.2267 38.3228 17.48ZM49.7834 11.02C50.2634 11.02 50.7168 11.48 51.1434 12.4C51.7701 11.7467 52.5434 11.42 53.4634 11.42C54.3968 11.42 55.0968 11.6267 55.5634 12.04C56.0301 12.44 56.2634 13.0133 56.2634 13.76C56.2634 14.4933 56.1634 15.24 55.9634 16C55.7768 16.76 55.6368 17.3067 55.5434 17.64C55.4634 17.96 55.4234 18.2267 55.4234 18.44C55.4234 18.6533 55.4968 18.76 55.6434 18.76C55.8434 18.76 56.0901 18.6333 56.3834 18.38C56.6768 18.1267 56.9701 17.8533 57.2634 17.56C57.5568 17.2533 57.8234 16.9733 58.0634 16.72C58.3168 16.4667 58.4901 16.34 58.5834 16.34C58.7701 16.34 58.8634 16.5667 58.8634 17.02C58.8634 17.9533 58.4034 18.8533 57.4834 19.72C55.9368 20.6267 54.9501 21.08 54.5234 21.08C54.4834 21.08 54.4568 21.0733 54.4434 21.06C53.3768 21.06 52.8434 20.2067 52.8434 18.5C52.8434 17.7667 52.9101 17.0933 53.0434 16.48C53.1901 15.8667 53.2968 15.42 53.3634 15.14C53.4301 14.86 53.4634 14.5733 53.4634 14.28C53.4634 13.8 53.1834 13.56 52.6234 13.56C52.0768 13.56 51.5501 13.9733 51.0434 14.8C50.5501 15.6133 50.2168 16.46 50.0434 17.34V17.48C50.0434 17.9333 50.1101 18.4 50.2434 18.88C50.3901 19.36 50.4634 19.6933 50.4634 19.88C50.4634 20.3333 49.8968 20.78 48.7634 21.22C48.5901 21.2867 48.4368 21.32 48.3034 21.32C47.9701 21.32 47.7368 21.1467 47.6034 20.8C47.4834 20.4533 47.4234 19.9133 47.4234 19.18C47.4234 17.2867 47.4968 15.92 47.6434 15.08C47.8434 13.8267 48.2968 12.66 49.0034 11.58C49.2434 11.2067 49.5034 11.02 49.7834 11.02ZM68.6534 16.78C68.6534 17.94 69.1468 18.52 70.1334 18.52C71.2134 18.52 71.9401 18.1467 72.3134 17.4C72.4468 17.1333 72.5134 16.7933 72.5134 16.38C72.5134 15.9533 72.4134 15.56 72.2134 15.2C71.8801 14.6267 71.3068 13.9933 70.4934 13.3C69.1468 12.1533 68.4734 10.9667 68.4734 9.74C68.4734 8.5 68.8601 7.54667 69.6334 6.88C70.4068 6.21333 71.2934 5.88 72.2934 5.88C73.2934 5.88 74.0868 6.13333 74.6734 6.64C75.2601 7.14667 75.5534 7.90667 75.5534 8.92C75.5534 9.58667 75.3268 10.1667 74.8734 10.66C74.4334 11.1533 73.8468 11.46 73.1134 11.58C73.4468 11.86 73.7801 12.1467 74.1134 12.44C74.4334 12.7333 74.7268 13.0533 74.9934 13.4C75.5801 14.1867 75.8734 15.1267 75.8734 16.22C75.8734 16.98 75.6934 17.6667 75.3334 18.28C74.9868 18.8933 74.5268 19.4133 73.9534 19.84C73.3934 20.2533 72.7601 20.5733 72.0534 20.8C71.3468 21.0267 70.6868 21.14 70.0734 21.14C68.7668 21.14 67.7534 20.84 67.0334 20.24C66.1934 19.56 65.7734 18.58 65.7734 17.3C65.7734 16.46 66.0468 15.6467 66.5934 14.86C67.1401 14.0733 67.7201 13.68 68.3334 13.68C68.8134 13.68 69.0534 13.8267 69.0534 14.12C69.0534 14.5467 68.9868 14.9733 68.8534 15.4C68.7201 15.8133 68.6534 16.2733 68.6534 16.78ZM72.5334 11.1C73.2934 10.34 73.6734 9.54667 73.6734 8.72C73.6734 8.46667 73.5401 8.25333 73.2734 8.08C72.9801 7.92 72.6734 7.84 72.3534 7.84C71.6334 7.84 71.1134 8.07333 70.7934 8.54C70.9534 9.11333 71.1868 9.6 71.4934 10C71.8134 10.4 72.1601 10.7667 72.5334 11.1ZM79.6797 21.06C78.3464 21.06 77.6797 19.8133 77.6797 17.32C77.6797 15.96 77.8464 14.7267 78.1797 13.62C78.6997 11.9133 79.2864 11.06 79.9397 11.06C80.3264 11.06 80.633 11.32 80.8597 11.84C81.0464 12.24 81.133 12.6333 81.1197 13.02C81.1197 13.5533 80.9597 14.4933 80.6397 15.84C80.333 17.0133 80.1797 17.74 80.1797 18.02C80.1797 18.3 80.2464 18.4933 80.3797 18.6C80.5264 18.7067 80.693 18.76 80.8797 18.76C81.0797 18.76 81.3264 18.6333 81.6197 18.38C81.913 18.1267 82.2064 17.8533 82.4997 17.56C82.793 17.2533 83.0597 16.9733 83.2997 16.72C83.553 16.4667 83.7264 16.34 83.8197 16.34C84.0064 16.34 84.0997 16.5667 84.0997 17.02C84.0997 17.9533 83.6264 18.8667 82.6797 19.76C81.7464 20.64 80.7464 21.0733 79.6797 21.06ZM80.4997 9.44C80.1397 8.90667 79.9597 8.33333 79.9597 7.72C79.9597 7.10667 80.053 6.6 80.2397 6.2C80.4397 5.78667 80.6264 5.48667 80.7997 5.3C80.973 5.1 81.173 5 81.3997 5C81.773 5 82.113 5.28 82.4197 5.84C82.7264 6.38667 82.8797 6.84667 82.8797 7.22C82.8797 7.91333 82.633 8.46 82.1397 8.86C81.6597 9.24667 81.113 9.44 80.4997 9.44ZM83.98 19.92C83.8333 19.56 83.7267 19.1467 83.66 18.68C83.5933 18.2 83.56 17.5333 83.56 16.68C83.56 15.8267 83.72 14.6733 84.04 13.22H83.14C82.98 13.22 82.9 13.1533 82.9 13.02C82.9 12.7 82.9267 12.44 82.98 12.24C83.0467 12.0267 83.1933 11.7867 83.42 11.52H83.9C84.0867 11.52 84.2867 11.5133 84.5 11.5C85.14 9.44667 85.7933 8.42 86.46 8.42C86.9933 8.43333 87.3667 8.77333 87.58 9.44C87.6333 9.62667 87.6933 9.82667 87.76 10.04L86.94 11.48C87.8733 11.5067 88.46 11.52 88.7 11.52C88.9533 11.52 89.0867 11.5467 89.1 11.6C89.1267 11.64 89.14 11.7067 89.14 11.8C89.14 12.04 89.08 12.34 88.96 12.7C88.8533 13.06 88.7267 13.2333 88.58 13.22L86.58 13.12C86.3 14.7467 86.16 16.0933 86.16 17.16C86.16 18.2267 86.3133 18.76 86.62 18.76C86.8733 18.76 87.3333 18.5533 88 18.14C88.6667 17.7133 89.1467 17.3067 89.44 16.92C89.7333 16.5333 89.9733 16.34 90.16 16.34C90.3467 16.34 90.44 16.5667 90.44 17.02C90.44 17.4733 90.28 17.94 89.96 18.42C89.64 18.8867 89.2333 19.32 88.74 19.72C88.26 20.1067 87.72 20.4267 87.12 20.68C86.5333 20.9333 86.02 21.06 85.58 21.06C85.14 21.06 84.8 20.96 84.56 20.76C84.3333 20.5467 84.14 20.2667 83.98 19.92ZM94.1077 18.82C95.1477 18.82 96.1543 18.4067 97.1277 17.58C97.4877 17.2733 97.781 16.9933 98.0077 16.74C98.2343 16.4733 98.4077 16.34 98.5277 16.34C98.7143 16.34 98.8077 16.5267 98.8077 16.9C98.8077 17.2733 98.7077 17.6933 98.5077 18.16C98.3077 18.6133 97.9743 19.06 97.5077 19.5C96.361 20.58 94.7877 21.12 92.7877 21.12C91.201 21.12 90.121 20.5467 89.5477 19.4C89.3477 19 89.2477 18.4267 89.2477 17.68C89.2477 16.9333 89.3943 16.16 89.6877 15.36C89.981 14.5467 90.3677 13.8467 90.8477 13.26C91.341 12.6733 91.9077 12.22 92.5477 11.9C93.1877 11.5667 93.8677 11.4 94.5877 11.4C95.321 11.4 95.881 11.58 96.2677 11.94C96.6677 12.3 96.8677 12.7667 96.8677 13.34C96.8677 13.9133 96.721 14.3867 96.4277 14.76C96.1477 15.12 95.781 15.4267 95.3277 15.68C94.8743 15.92 94.3677 16.14 93.8077 16.34C93.261 16.5267 92.721 16.74 92.1877 16.98V17.48C92.201 17.96 92.401 18.3 92.7877 18.5C93.1743 18.7 93.6143 18.8067 94.1077 18.82ZM93.7677 13.18C93.0743 13.18 92.5943 13.9867 92.3277 15.6C92.6077 15.4133 92.8677 15.2467 93.1077 15.1C93.361 14.9533 93.581 14.8133 93.7677 14.68C94.1677 14.3867 94.3743 14.0533 94.3877 13.68C94.3877 13.3467 94.181 13.18 93.7677 13.18Z" fill="#F5C149"/>
</svg>
